<svg xmlns="http://www.w3.org/2000/svg" xmlns:xlink="http://www.w3.org/1999/xlink" width="500" zoomAndPan="magnify" viewBox="0 0 375 374.999991" height="500" preserveAspectRatio="xMidYMid meet" version="1.0"><defs><g/><clipPath id="989b2008a8"><path d="M 103.460938 168.90625 L 152.257812 168.90625 L 152.257812 206.09375 L 103.460938 206.09375 Z M 103.460938 168.90625 " clip-rule="nonzero"/></clipPath><clipPath id="957f8fa99b"><path d="M 103.460938 168.90625 L 152.210938 168.90625 L 152.210938 206.402344 L 103.460938 206.402344 Z M 103.460938 168.90625 " clip-rule="nonzero"/></clipPath></defs><rect x="-37.5" width="450" fill="#ffffff" y="-37.499999" height="449.999989" fill-opacity="1"/><rect x="-37.5" width="450" fill="#ffffff" y="-37.499999" height="449.999989" fill-opacity="1"/><rect x="-37.5" width="450" fill="#ffffff" y="-37.499999" height="449.999989" fill-opacity="1"/><g clip-path="url(#989b2008a8)"><path fill="#ffde59" d="M 103.460938 168.90625 L 152.214844 168.90625 L 152.214844 206.25 L 103.460938 206.25 Z M 103.460938 168.90625 " fill-opacity="1" fill-rule="nonzero"/></g><g fill="#000000" fill-opacity="1"><g transform="translate(107.037976, 196.499987)"><g><path d="M 9.410156 0.363281 C 13.707031 0.363281 16.488281 -1.742188 16.488281 -5.167969 C 16.488281 -8.0625 14.550781 -9.800781 9.523438 -11.039062 C 5.703125 -11.964844 4.4375 -12.976562 4.4375 -14.605469 C 4.4375 -16.488281 6.125 -17.667969 8.933594 -17.667969 C 11.824219 -17.667969 13.621094 -16.207031 13.679688 -13.847656 L 16.121094 -13.847656 C 16.09375 -17.667969 13.339844 -20.027344 8.933594 -20.027344 C 4.632812 -20.027344 1.910156 -17.917969 1.910156 -14.605469 C 1.910156 -11.570312 4.074219 -9.886719 8.902344 -8.734375 C 12.441406 -7.894531 13.929688 -6.910156 13.929688 -5.082031 C 13.929688 -3.144531 12.191406 -1.996094 9.410156 -1.996094 C 6.347656 -1.996094 4.214844 -3.511719 4.15625 -6.039062 L 1.683594 -6.039062 C 1.714844 -2.191406 4.71875 0.363281 9.410156 0.363281 Z M 9.410156 0.363281 "/></g></g></g><g fill="#000000" fill-opacity="1"><g transform="translate(127.339296, 196.499987)"><g><path d="M 2.863281 0 L 5.308594 0 L 5.308594 -15.390625 L 16.179688 0 L 18.480469 0 L 18.480469 -19.660156 L 16.066406 -19.660156 L 16.066406 -4.269531 L 5.195312 -19.660156 L 2.863281 -19.660156 Z M 2.863281 0 "/></g></g></g><g fill="#000000" fill-opacity="1"><g transform="translate(155.52811, 196.499987)"><g><path d="M 2.078125 0 L 15.871094 0 L 15.871094 -4.632812 L 7.695312 -4.632812 L 7.695312 -7.667969 L 14.800781 -7.667969 L 14.800781 -12.21875 L 7.695312 -12.21875 L 7.695312 -15.082031 L 15.558594 -15.082031 L 15.558594 -19.660156 L 2.078125 -19.660156 Z M 2.078125 0 "/></g></g></g><g fill="#000000" fill-opacity="1"><g transform="translate(172.655738, 196.499987)"><g><path d="M 8.453125 0.421875 C 10.5625 0.421875 12.332031 -0.28125 13.652344 -1.488281 L 14.183594 0 L 18.058594 0 L 18.058594 -20.785156 L 12.667969 -20.785156 L 12.667969 -14.101562 C 11.488281 -14.859375 10.054688 -15.28125 8.453125 -15.28125 C 3.988281 -15.28125 0.871094 -12.050781 0.871094 -7.441406 C 0.871094 -2.78125 3.988281 0.421875 8.453125 0.421875 Z M 6.152344 -7.441406 C 6.152344 -9.410156 7.527344 -10.8125 9.523438 -10.8125 C 11.488281 -10.8125 12.863281 -9.410156 12.863281 -7.441406 C 12.863281 -5.449219 11.488281 -4.042969 9.523438 -4.042969 C 7.527344 -4.042969 6.152344 -5.449219 6.152344 -7.441406 Z M 6.152344 -7.441406 "/></g></g></g><g fill="#000000" fill-opacity="1"><g transform="translate(192.591173, 196.499987)"><g><path d="M 7.78125 0.421875 C 9.773438 0.421875 11.488281 -0.28125 12.582031 -1.515625 L 13.144531 0 L 16.992188 0 L 16.992188 -14.859375 L 11.601562 -14.859375 L 11.601562 -6.882812 C 11.601562 -5.054688 10.703125 -4.042969 9.242188 -4.042969 C 7.835938 -4.042969 6.992188 -4.972656 6.992188 -6.714844 L 6.992188 -14.859375 L 1.601562 -14.859375 L 1.601562 -6.152344 C 1.601562 -2.132812 3.988281 0.421875 7.78125 0.421875 Z M 7.78125 0.421875 "/></g></g></g><g fill="#000000" fill-opacity="1"><g transform="translate(211.487725, 196.499987)"><g><path d="M 9.324219 0.421875 C 13.789062 0.421875 17.050781 -2.164062 17.75 -6.234375 L 12.640625 -6.234375 C 12.105469 -4.886719 10.898438 -4.042969 9.382812 -4.042969 C 7.472656 -4.042969 6.152344 -5.421875 6.152344 -7.441406 C 6.152344 -9.4375 7.472656 -10.8125 9.382812 -10.8125 C 10.785156 -10.8125 11.9375 -10.113281 12.554688 -8.902344 L 17.609375 -8.902344 C 16.964844 -12.78125 13.707031 -15.28125 9.324219 -15.28125 C 4.355469 -15.28125 0.871094 -12.019531 0.871094 -7.441406 C 0.871094 -2.808594 4.324219 0.421875 9.324219 0.421875 Z M 9.324219 0.421875 "/></g></g></g><g fill="#000000" fill-opacity="1"><g transform="translate(230.04734, 196.499987)"><g><path d="M 6.824219 0.335938 C 8.960938 0.335938 10.757812 -0.363281 12.019531 -1.628906 L 12.609375 0 L 16.488281 0 L 16.488281 -8.652344 C 16.488281 -12.890625 13.820312 -15.28125 9.042969 -15.28125 C 4.886719 -15.28125 2.386719 -13.398438 1.9375 -9.972656 L 6.992188 -9.972656 C 7.132812 -10.839844 7.976562 -11.429688 9.070312 -11.429688 C 10.28125 -11.429688 11.234375 -10.730469 11.234375 -9.746094 L 11.234375 -8.902344 L 6.234375 -8.902344 C 3.175781 -8.902344 1.207031 -7.078125 1.207031 -4.355469 C 1.207031 -1.460938 3.398438 0.335938 6.824219 0.335938 Z M 6.488281 -4.605469 C 6.488281 -5.449219 7.21875 -5.953125 8.371094 -5.953125 L 11.292969 -5.953125 C 11.292969 -4.324219 10.054688 -3.230469 8.425781 -3.230469 C 7.273438 -3.230469 6.488281 -3.765625 6.488281 -4.605469 Z M 6.488281 -4.605469 "/></g></g></g><g fill="#000000" fill-opacity="1"><g transform="translate(248.129622, 196.499987)"><g><path d="M 9.4375 0 L 12.441406 0 L 12.441406 -4.550781 L 10.898438 -4.550781 C 9.324219 -4.550781 8.59375 -5.253906 8.59375 -6.796875 L 8.59375 -10.617188 L 12.246094 -10.617188 L 12.246094 -14.859375 L 8.59375 -14.859375 L 8.59375 -18.761719 L 4.410156 -18.761719 L 4.128906 -16.824219 C 3.902344 -15.28125 3.484375 -14.859375 1.796875 -14.859375 L 0.449219 -14.859375 L 0.449219 -10.617188 L 3.203125 -10.617188 L 3.203125 -5.757812 C 3.203125 -1.996094 5.363281 0 9.4375 0 Z M 9.4375 0 "/></g></g></g><g fill="#000000" fill-opacity="1"><g transform="translate(261.663255, 196.499987)"><g><path d="M 9.269531 0.421875 C 13.117188 0.421875 16.066406 -1.488281 17.386719 -4.804688 L 12.160156 -4.804688 C 11.570312 -4.101562 10.53125 -3.652344 9.382812 -3.652344 C 7.863281 -3.652344 6.601562 -4.464844 6.207031 -6.09375 L 17.667969 -6.09375 C 17.949219 -11.628906 14.605469 -15.28125 9.296875 -15.28125 C 4.324219 -15.28125 0.871094 -12.078125 0.871094 -7.441406 C 0.871094 -2.78125 4.296875 0.421875 9.269531 0.421875 Z M 6.234375 -9.015625 C 6.683594 -10.449219 7.863281 -11.234375 9.351562 -11.234375 C 10.980469 -11.234375 12.078125 -10.390625 12.527344 -9.015625 Z M 6.234375 -9.015625 "/></g></g></g><g clip-path="url(#957f8fa99b)"><path stroke-linecap="butt" transform="matrix(0.749459, 0, 0, 0.756382, 103.462762, 168.908192)" fill="none" stroke-linejoin="miter" d="M -0.00243403 -0.00256763 L 65.044452 -0.00256763 L 65.044452 49.5704 L -0.00243403 49.5704 L -0.00243403 -0.00256763 " stroke="#000000" stroke-width="6" stroke-opacity="1" stroke-miterlimit="4"/></g></svg>