<svg xmlns="http://www.w3.org/2000/svg" xmlns:xlink="http://www.w3.org/1999/xlink" width="200" zoomAndPan="magnify" viewBox="0 0 150 74.999997" height="100" preserveAspectRatio="xMidYMid meet" version="1.0"><defs><g/><clipPath id="4181f1242a"><path d="M 16.847656 25.484375 L 48.378906 25.484375 L 48.378906 49.515625 L 16.847656 49.515625 Z M 16.847656 25.484375 " clip-rule="nonzero"/></clipPath><clipPath id="213200849a"><path d="M 16.847656 25.484375 L 48.347656 25.484375 L 48.347656 49.71875 L 16.847656 49.71875 Z M 16.847656 25.484375 " clip-rule="nonzero"/></clipPath></defs><g clip-path="url(#4181f1242a)"><path fill="#ffde59" d="M 16.847656 25.484375 L 48.019531 25.484375 L 48.019531 49.617188 L 16.847656 49.617188 Z M 16.847656 25.484375 " fill-opacity="1" fill-rule="nonzero"/></g><g fill="#000000" fill-opacity="1"><g transform="translate(19.15729, 43.316163)"><g><path d="M 6.082031 0.234375 C 8.859375 0.234375 10.65625 -1.125 10.65625 -3.339844 C 10.65625 -5.210938 9.402344 -6.335938 6.152344 -7.132812 C 3.683594 -7.734375 2.867188 -8.386719 2.867188 -9.4375 C 2.867188 -10.65625 3.957031 -11.417969 5.773438 -11.417969 C 7.640625 -11.417969 8.804688 -10.472656 8.839844 -8.949219 L 10.417969 -8.949219 C 10.402344 -11.417969 8.621094 -12.941406 5.773438 -12.941406 C 2.996094 -12.941406 1.234375 -11.582031 1.234375 -9.4375 C 1.234375 -7.476562 2.632812 -6.390625 5.753906 -5.644531 C 8.042969 -5.101562 9.003906 -4.464844 9.003906 -3.285156 C 9.003906 -2.03125 7.878906 -1.289062 6.082031 -1.289062 C 4.101562 -1.289062 2.722656 -2.269531 2.6875 -3.902344 L 1.089844 -3.902344 C 1.105469 -1.414062 3.050781 0.234375 6.082031 0.234375 Z M 6.082031 0.234375 "/></g></g></g><g fill="#000000" fill-opacity="1"><g transform="translate(32.276833, 43.316163)"><g><path d="M 1.851562 0 L 3.429688 0 L 3.429688 -9.945312 L 10.457031 0 L 11.945312 0 L 11.945312 -12.707031 L 10.382812 -12.707031 L 10.382812 -2.757812 L 3.359375 -12.707031 L 1.851562 -12.707031 Z M 1.851562 0 "/></g></g></g><g fill="#000000" fill-opacity="1"><g transform="translate(50.493601, 43.316163)"><g><path d="M 1.34375 0 L 10.253906 0 L 10.253906 -2.996094 L 4.972656 -2.996094 L 4.972656 -4.957031 L 9.566406 -4.957031 L 9.566406 -7.894531 L 4.972656 -7.894531 L 4.972656 -9.746094 L 10.054688 -9.746094 L 10.054688 -12.707031 L 1.34375 -12.707031 Z M 1.34375 0 "/></g></g></g><g fill="#000000" fill-opacity="1"><g transform="translate(61.562175, 43.316163)"><g><path d="M 5.464844 0.273438 C 6.824219 0.273438 7.96875 -0.179688 8.820312 -0.960938 L 9.167969 0 L 11.671875 0 L 11.671875 -13.433594 L 8.1875 -13.433594 L 8.1875 -9.113281 C 7.425781 -9.601562 6.5 -9.875 5.464844 -9.875 C 2.578125 -9.875 0.5625 -7.785156 0.5625 -4.808594 C 0.5625 -1.796875 2.578125 0.273438 5.464844 0.273438 Z M 3.976562 -4.808594 C 3.976562 -6.082031 4.863281 -6.988281 6.152344 -6.988281 C 7.425781 -6.988281 8.3125 -6.082031 8.3125 -4.808594 C 8.3125 -3.519531 7.425781 -2.613281 6.152344 -2.613281 C 4.863281 -2.613281 3.976562 -3.519531 3.976562 -4.808594 Z M 3.976562 -4.808594 "/></g></g></g><g fill="#000000" fill-opacity="1"><g transform="translate(74.445269, 43.316163)"><g><path d="M 5.027344 0.273438 C 6.316406 0.273438 7.425781 -0.179688 8.132812 -0.980469 L 8.496094 0 L 10.980469 0 L 10.980469 -9.601562 L 7.496094 -9.601562 L 7.496094 -4.445312 C 7.496094 -3.265625 6.914062 -2.613281 5.972656 -2.613281 C 5.0625 -2.613281 4.519531 -3.210938 4.519531 -4.339844 L 4.519531 -9.601562 L 1.035156 -9.601562 L 1.035156 -3.976562 C 1.035156 -1.378906 2.578125 0.273438 5.027344 0.273438 Z M 5.027344 0.273438 "/></g></g></g><g fill="#000000" fill-opacity="1"><g transform="translate(86.656994, 43.316163)"><g><path d="M 6.027344 0.273438 C 8.914062 0.273438 11.019531 -1.398438 11.472656 -4.03125 L 8.167969 -4.03125 C 7.824219 -3.160156 7.042969 -2.613281 6.0625 -2.613281 C 4.828125 -2.613281 3.976562 -3.503906 3.976562 -4.808594 C 3.976562 -6.097656 4.828125 -6.988281 6.0625 -6.988281 C 6.96875 -6.988281 7.714844 -6.535156 8.113281 -5.753906 L 11.382812 -5.753906 C 10.964844 -8.257812 8.859375 -9.875 6.027344 -9.875 C 2.8125 -9.875 0.5625 -7.769531 0.5625 -4.808594 C 0.5625 -1.816406 2.796875 0.273438 6.027344 0.273438 Z M 6.027344 0.273438 "/></g></g></g><g fill="#000000" fill-opacity="1"><g transform="translate(98.650977, 43.316163)"><g><path d="M 4.410156 0.21875 C 5.789062 0.21875 6.953125 -0.234375 7.769531 -1.054688 L 8.148438 0 L 10.65625 0 L 10.65625 -5.589844 C 10.65625 -8.332031 8.929688 -9.875 5.84375 -9.875 C 3.160156 -9.875 1.542969 -8.65625 1.253906 -6.445312 L 4.519531 -6.445312 C 4.609375 -7.007812 5.15625 -7.386719 5.863281 -7.386719 C 6.644531 -7.386719 7.261719 -6.933594 7.261719 -6.296875 L 7.261719 -5.753906 L 4.03125 -5.753906 C 2.050781 -5.753906 0.78125 -4.574219 0.78125 -2.8125 C 0.78125 -0.945312 2.195312 0.21875 4.410156 0.21875 Z M 4.191406 -2.976562 C 4.191406 -3.519531 4.664062 -3.847656 5.410156 -3.847656 L 7.296875 -3.847656 C 7.296875 -2.796875 6.5 -2.085938 5.445312 -2.085938 C 4.703125 -2.085938 4.191406 -2.433594 4.191406 -2.976562 Z M 4.191406 -2.976562 "/></g></g></g><g fill="#000000" fill-opacity="1"><g transform="translate(110.336487, 43.316163)"><g><path d="M 6.097656 0 L 8.042969 0 L 8.042969 -2.941406 L 7.042969 -2.941406 C 6.027344 -2.941406 5.554688 -3.394531 5.554688 -4.394531 L 5.554688 -6.859375 L 7.914062 -6.859375 L 7.914062 -9.601562 L 5.554688 -9.601562 L 5.554688 -12.125 L 2.851562 -12.125 L 2.667969 -10.871094 C 2.523438 -9.875 2.25 -9.601562 1.160156 -9.601562 L 0.289062 -9.601562 L 0.289062 -6.859375 L 2.070312 -6.859375 L 2.070312 -3.722656 C 2.070312 -1.289062 3.46875 0 6.097656 0 Z M 6.097656 0 "/></g></g></g><g fill="#000000" fill-opacity="1"><g transform="translate(119.082475, 43.316163)"><g><path d="M 5.988281 0.273438 C 8.476562 0.273438 10.382812 -0.960938 11.234375 -3.105469 L 7.859375 -3.105469 C 7.476562 -2.648438 6.808594 -2.359375 6.0625 -2.359375 C 5.082031 -2.359375 4.265625 -2.886719 4.011719 -3.9375 L 11.417969 -3.9375 C 11.597656 -7.515625 9.4375 -9.875 6.007812 -9.875 C 2.796875 -9.875 0.5625 -7.804688 0.5625 -4.808594 C 0.5625 -1.796875 2.777344 0.273438 5.988281 0.273438 Z M 4.03125 -5.828125 C 4.320312 -6.753906 5.082031 -7.261719 6.042969 -7.261719 C 7.097656 -7.261719 7.804688 -6.714844 8.09375 -5.828125 Z M 4.03125 -5.828125 "/></g></g></g><g clip-path="url(#213200849a)"><path stroke-linecap="butt" transform="matrix(2.423403, 0, 0, 2.446337, 16.848671, 25.483898)" fill="none" stroke-linejoin="miter" d="M -0.000418723 0.000194904 L 12.997831 0.000194904 L 12.997831 9.906587 L -0.000418723 9.906587 L -0.000418723 0.000194904 " stroke="#000000" stroke-width="0.618964" stroke-opacity="1" stroke-miterlimit="4"/></g></svg>